<?xml version="1.0" encoding="UTF-8"?>
<svg id="Layer_1" data-name="Layer 1" xmlns="http://www.w3.org/2000/svg" viewBox="0 0 80 80">
  <defs>
    <style>
      .cls-1 {
        fill: #99ed43;
      }

      .cls-1, .cls-2 {
        stroke-width: 0px;
      }

      .cls-2 {
        fill: #383838;
      }
    </style>
  </defs>
  <g>
    <rect class="cls-2" x="23.92" y="33.08" width="2.19" height="4.46"/>
    <path class="cls-2" d="M32.84,37.54c0,2.46-2,4.46-4.46,4.46s-4.46-2-4.46-4.46h2.19c0,1.26,1.01,2.27,2.27,2.27s2.27-1.01,2.27-2.27h2.19Z"/>
    <rect class="cls-2" x="30.65" y="33.08" width="2.19" height="4.46"/>
    <path class="cls-2" d="M39.82,37.54c0-1.26-1.01-2.27-2.27-2.27s-2.27,1.01-2.27,2.27,1.01,2.27,2.27,2.27h1.26v2.19h-1.26c-2.46,0-4.46-2-4.46-4.46s2-4.46,4.46-4.46,4.46,2,4.46,4.46v4.46h-2.19v-4.46Z"/>
    <path class="cls-2" d="M49,37.54c0-1.26-1.01-2.27-2.27-2.27s-2.27,1.01-2.27,2.27h-2.19c0-2.46,2-4.46,4.46-4.46s4.46,2,4.46,4.46h-2.19Z"/>
    <rect class="cls-2" x="42.27" y="37.54" width="2.19" height="4.46"/>
    <rect class="cls-2" x="49" y="37.54" width="2.19" height="4.46"/>
    <path class="cls-2" d="M52.77,35.26h-1.33v-2.19h1.33v-2.86h2.19v2.86h1.43v2.19h-1.43v2.78c0,1.26.37,1.77,1.41,1.77v2.19c-2.37,0-3.6-1.11-3.6-3.95v-2.78Z"/>
    <rect class="cls-2" x="56.64" y="33.08" width="2.19" height="4.46"/>
    <path class="cls-2" d="M65.56,37.54c0,2.46-2,4.46-4.46,4.46s-4.46-2-4.46-4.46h2.19c0,1.26,1.01,2.27,2.27,2.27s2.27-1.01,2.27-2.27h2.19Z"/>
    <rect class="cls-2" x="63.37" y="33.08" width="2.19" height="4.46"/>
    <path class="cls-2" d="M71.03,37.03c0-1.26-.67-1.77-1.51-1.77s-1.51.5-1.51,1.77h-2.19c0-2.46,1.67-3.95,3.7-3.95s3.7,1.5,3.7,3.95h-2.19Z"/>
    <rect class="cls-2" x="65.81" y="37.03" width="2.19" height="4.96"/>
    <path class="cls-2" d="M76.24,37.03c0-1.26-.67-1.77-1.51-1.77s-1.51.5-1.51,1.77h-2.19c0-2.46,1.67-3.95,3.7-3.95s3.7,1.5,3.7,3.95h-2.19Z"/>
    <rect class="cls-2" x="71.03" y="37.03" width="2.19" height="4.96"/>
    <rect class="cls-2" x="76.24" y="37.03" width="2.19" height="4.96"/>
  </g>
  <g>
    <path class="cls-1" d="M24.9,49.6l2.03-5.77h1.13l2.03,5.77h-.98l-.44-1.29h-2.35l-.45,1.29h-.98ZM26.58,47.49h1.8l-1.02-3.02h.26l-1.04,3.02Z"/>
    <path class="cls-1" d="M31.94,49.69c-.42,0-.79-.1-1.11-.29-.32-.19-.58-.46-.77-.79-.19-.33-.28-.7-.28-1.12s.09-.78.28-1.12c.19-.33.44-.59.77-.78.33-.19.7-.28,1.12-.28.28,0,.55.05.8.15.25.1.46.24.65.41.18.18.32.38.41.61l-.77.36c-.09-.22-.23-.39-.42-.52-.19-.13-.41-.2-.66-.2s-.45.06-.64.17c-.19.12-.34.28-.45.49-.11.21-.16.45-.16.71s.05.5.16.71c.11.21.26.37.45.49.19.12.4.18.64.18.25,0,.47-.07.66-.2.19-.13.33-.31.42-.53l.77.36c-.08.22-.22.42-.4.6s-.4.32-.65.42c-.25.1-.52.15-.81.15Z"/>
    <path class="cls-1" d="M35.27,49.69c-.28,0-.53-.05-.75-.15-.21-.1-.38-.24-.5-.42-.12-.18-.18-.39-.18-.63,0-.23.05-.43.15-.61.1-.18.26-.33.47-.46.21-.12.48-.21.8-.26l1.46-.24v.69l-1.29.22c-.23.04-.4.11-.51.22s-.16.24-.16.41.06.29.18.39c.12.1.28.15.47.15.24,0,.45-.05.62-.15.18-.1.32-.24.41-.41.1-.17.15-.37.15-.58v-1.08c0-.21-.08-.38-.23-.51-.15-.13-.36-.2-.61-.2-.23,0-.44.06-.61.18-.17.12-.3.28-.38.47l-.73-.36c.08-.21.2-.39.38-.55.18-.16.38-.28.62-.37.23-.09.48-.13.75-.13.33,0,.62.06.88.19.26.12.45.3.6.52.14.22.21.47.21.76v2.82h-.84v-.76l.18.02c-.1.17-.22.32-.38.44-.15.12-.33.22-.52.29-.19.07-.41.1-.65.1Z"/>
    <path class="cls-1" d="M39.85,49.69c-.4,0-.76-.1-1.08-.29-.32-.19-.57-.46-.75-.79-.18-.33-.28-.7-.28-1.12s.09-.78.28-1.12c.19-.33.44-.59.75-.78.31-.19.67-.29,1.07-.29.34,0,.63.07.89.2.26.13.46.32.61.56l-.13.2v-2.54h.87v5.86h-.83v-.85l.1.16c-.14.25-.35.45-.62.58-.27.13-.56.2-.88.2ZM39.94,48.88c.24,0,.46-.06.65-.18.19-.12.35-.28.46-.49.11-.21.17-.45.17-.71s-.06-.5-.17-.7c-.11-.21-.26-.37-.46-.49-.19-.12-.41-.18-.65-.18s-.46.06-.66.18c-.2.12-.35.28-.46.49-.11.21-.16.44-.16.7s.05.5.16.71c.11.21.26.37.45.49.19.12.41.18.66.18Z"/>
    <path class="cls-1" d="M44.49,49.69c-.42,0-.79-.1-1.11-.29-.32-.19-.57-.46-.76-.79-.18-.33-.27-.71-.27-1.12s.09-.8.27-1.12c.18-.33.43-.58.74-.77.31-.19.66-.28,1.05-.28.31,0,.6.05.84.16.25.11.46.26.63.45.17.19.3.4.39.65.09.24.14.5.14.77,0,.07,0,.14,0,.21,0,.07-.02.14-.03.2h-3.34v-.7h2.84l-.42.32c.05-.25.03-.48-.05-.68-.09-.2-.21-.36-.39-.47-.17-.12-.38-.17-.61-.17s-.44.06-.62.17c-.18.12-.32.28-.42.5-.1.21-.14.47-.12.78-.03.28.01.53.12.74.11.21.26.38.45.5.19.12.41.18.66.18s.47-.06.65-.17c.18-.11.32-.26.42-.44l.71.35c-.08.2-.21.37-.38.53s-.38.28-.62.37-.5.14-.79.14Z"/>
    <path class="cls-1" d="M46.69,49.6v-4.19h.84v.91l-.11-.14c.09-.28.25-.5.48-.64.23-.14.5-.22.8-.22.34,0,.63.09.89.27.26.18.43.41.52.71l-.25.02c.12-.34.31-.59.57-.75.26-.17.55-.25.88-.25.29,0,.55.07.79.2.23.13.42.32.56.56.14.24.21.51.21.81v2.71h-.88v-2.47c0-.21-.04-.39-.11-.54-.07-.15-.18-.26-.31-.34-.13-.08-.29-.12-.46-.12s-.33.04-.46.12c-.13.08-.24.19-.32.34-.08.15-.12.33-.12.53v2.47h-.87v-2.47c0-.21-.04-.39-.11-.54-.07-.15-.18-.26-.31-.34-.13-.08-.29-.12-.47-.12s-.33.04-.46.12c-.13.08-.24.19-.31.34-.07.15-.11.33-.11.53v2.47h-.88Z"/>
    <path class="cls-1" d="M53.52,51.3c-.1,0-.21,0-.31-.03-.1-.02-.19-.05-.27-.08v-.75c.06.02.14.03.22.04.09.01.17.02.26.02.24,0,.42-.05.54-.16.12-.11.22-.27.31-.48l.28-.64-.02.74-1.81-4.55h.94l1.34,3.49h-.32l1.33-3.49h.94l-1.85,4.65c-.1.25-.22.47-.37.65-.15.19-.32.33-.52.44-.2.1-.43.15-.7.15Z"/>
  </g>
  <path class="cls-2" d="M20.84,47.12c-2.04-2.04-4.05-4.05-6.12-6.12,1.42.51,2.78,1,4.13,1.49,1.43-2.14.57-6.03-1.74-7.99-2.68-2.26-6.67-2.16-9.19.24-2.54,2.42-2.86,6.43-.77,9.16,2.07,2.7,6.26,3.98,10.13,1.02.9.93,1.8,1.89,2.73,2.83.93.94,1.88,1.85,2.82,2.77-.03.05-.06.1-.09.15-.87-.31-1.77-.56-2.61-.95-1.04-.48-1.91-.42-3.01.05-4.17,1.8-8.17,1.29-11.63-1.68-3.43-2.94-4.64-6.8-3.48-11.17,1.15-4.35,4.1-7.04,8.48-8,4.53-.99,9.26,1.17,11.63,5.16,2.4,4.04,2.02,9.08-.97,12.68-.11.13-.23.26-.3.34Z"/>
</svg>